<svg width="11" height="11" viewBox="0 0 11 11" fill="none" xmlns="http://www.w3.org/2000/svg">
<path d="M10.6776 2.29483L9.42586 2.71208C9.2362 2.78794 8.72414 3.37588 7.85172 4.5138C6.92242 5.68966 6.42931 6.44828 6.35345 6.82761L6.29655 7.87072L6.27758 8.53452L6.39139 10.1276L8.04139 10.1656L7.8138 11H2.88275L2.97758 10.2603L3.75517 10.2224C4.15345 10.1845 4.4 10.0896 4.47586 9.97584C4.53275 9.89998 4.55172 9.3879 4.55172 8.49653V7.94653L4.53275 6.84653C4.47586 6.59998 4.05861 5.67067 3.22414 4.07756C2.37069 2.42756 1.82069 1.46031 1.55517 1.11895L0 0.796555V0H5.23447L5.17758 0.663803L3.54655 0.910357C4.05861 2.08622 4.83622 3.73622 5.87931 5.80347C7.24483 4.17244 7.9655 3.11036 7.98447 2.65519L6.6 2.3138L6.52414 1.51725H11L10.6776 2.29483Z" fill="#8F25A9"/>
</svg>
