<svg width="11" height="13" viewBox="0 0 11 13" fill="none" xmlns="http://www.w3.org/2000/svg">
<path d="M3.46723 13C1.56964 12.9888 0 9.03926 0 7.02784C0 3.74219 2.4174 3.02287 3.34904 3.02287C3.7689 3.02287 4.21721 3.19099 4.61264 3.33975C4.88915 3.44352 5.17513 3.55064 5.33418 3.55064C5.42938 3.55064 5.65373 3.45952 5.8518 3.37956C6.27422 3.2081 6.79986 2.995 7.41196 2.995C7.41305 2.995 7.41452 2.995 7.4156 2.995C7.87265 2.995 9.25847 3.09727 10.0916 4.373L10.2868 4.67202L10.0059 4.88812C9.60466 5.19682 8.87253 5.75993 8.87253 6.87537C8.87253 8.19647 9.70168 8.70454 10.1 8.94889C10.2759 9.05675 10.4579 9.16796 10.4579 9.41121C10.4579 9.57003 9.21469 12.9803 7.40939 12.9803C6.96765 12.9803 6.6554 12.8449 6.37998 12.7255C6.1013 12.6046 5.86089 12.5005 5.46365 12.5005C5.26229 12.5005 5.00766 12.5976 4.73809 12.7006C4.36971 12.8408 3.95275 13 3.47963 13H3.46723Z" fill="#7A95AA"/>
<path d="M7.60333 0C7.65035 1.72849 6.43798 2.92764 5.22702 2.85243C5.02748 1.47304 6.43783 0 7.60333 0Z" fill="#7A95AA"/>
</svg>
