<svg width="14" height="14" viewBox="0 0 14 14" fill="none" xmlns="http://www.w3.org/2000/svg">
<path d="M13.5625 2.62561H7.4375C7.196 2.62561 7 2.82161 7 3.06311C7 3.30461 7.196 3.50061 7.4375 3.50061H12.2876L9.59962 5.59099L7.672 4.36511L7.203 5.10361L9.3905 6.49486C9.46138 6.54036 9.54363 6.56311 9.625 6.56311C9.7195 6.56311 9.81488 6.53249 9.89363 6.47124L13.125 3.95736V9.62561H7.4375C7.196 9.62561 7 9.82161 7 10.0631C7 10.3046 7.196 10.5006 7.4375 10.5006H13.5625C13.804 10.5006 14 10.3046 14 10.0631V3.06311C14 2.82161 13.804 2.62561 13.5625 2.62561Z" fill="#1976D2"/>
<path d="M7.71663 0.101215C7.61688 0.0180895 7.483 -0.0177855 7.357 0.00846454L0.357 1.32096C0.149625 1.35946 0 1.53971 0 1.75059V11.3756C0 11.5856 0.149625 11.7667 0.357 11.8052L7.357 13.1177C7.38325 13.123 7.41038 13.1256 7.4375 13.1256C7.539 13.1256 7.63788 13.0906 7.71663 13.025C7.81725 12.9418 7.875 12.8176 7.875 12.6881V0.43809C7.875 0.307715 7.81725 0.18434 7.71663 0.101215Z" fill="#2196F3"/>
<path d="M3.9375 9.62561C2.73175 9.62561 1.75 8.44786 1.75 7.00061C1.75 5.55336 2.73175 4.37561 3.9375 4.37561C5.14325 4.37561 6.125 5.55336 6.125 7.00061C6.125 8.44786 5.14325 9.62561 3.9375 9.62561ZM3.9375 5.25061C3.21387 5.25061 2.625 6.03548 2.625 7.00061C2.625 7.96573 3.21387 8.75061 3.9375 8.75061C4.66112 8.75061 5.25 7.96573 5.25 7.00061C5.25 6.03548 4.66112 5.25061 3.9375 5.25061Z" fill="#FAFAFA"/>
</svg>
